<?xml version="1.0" standalone="no"?>
<!DOCTYPE svg PUBLIC "-//W3C//DTD SVG 20010904//EN"
 "http://www.w3.org/TR/2001/REC-SVG-20010904/DTD/svg10.dtd">
<svg version="1.0" xmlns="http://www.w3.org/2000/svg"
 width="103.000000pt" height="104.000000pt" viewBox="0 0 103.000000 104.000000"
 preserveAspectRatio="xMidYMid meet">

<g transform="translate(0.000000,104.000000) scale(0.100000,-0.100000)"
fill="#000000" stroke="none">
<path d="M103 968 c-59 -42 -58 -38 -58 -447 0 -349 1 -378 19 -407 36 -60 28
-59 433 -62 413 -3 425 -2 463 60 19 32 20 50 20 411 0 318 -2 383 -15 407
-31 59 -37 60 -452 60 -376 0 -378 0 -410 -22z m790 -2 c18 -7 41 -23 52 -36
19 -21 20 -38 23 -381 3 -400 0 -428 -51 -459 -30 -19 -53 -20 -409 -20 l-378
0 -32 29 -33 29 -3 384 c-2 367 -1 384 17 415 13 20 33 36 53 42 18 5 190 10
381 10 273 1 355 -2 380 -13z"/>
<path d="M126 919 l-26 -20 1 -252 c1 -185 4 -241 11 -209 l9 42 121 0 121 0
-7 -40 c-3 -22 -9 -58 -12 -80 l-7 -40 104 0 c96 0 108 2 155 29 150 86 177
293 46 357 -32 16 -67 19 -254 22 -196 3 -218 5 -218 20 0 9 7 55 15 102 8 47
15 86 15 88 0 11 -53 -2 -74 -19z"/>
<path d="M811 912 c25 -16 61 -48 82 -72 l37 -44 0 48 c0 69 -30 96 -107 96
l-57 0 45 -28z"/>
<path d="M900 343 c-34 -64 -134 -161 -206 -200 l-59 -32 127 -1 c170 0 171 1
166 178 l-3 102 -25 -47z"/>
</g>
</svg>
