<?xml version="1.0" standalone="no"?>
<!DOCTYPE svg PUBLIC "-//W3C//DTD SVG 20010904//EN"
 "http://www.w3.org/TR/2001/REC-SVG-20010904/DTD/svg10.dtd">
<svg version="1.0" xmlns="http://www.w3.org/2000/svg"
 width="145.000000pt" height="147.000000pt" viewBox="0 0 145.000000 147.000000"
 preserveAspectRatio="xMidYMid meet">

<g transform="translate(0.000000,147.000000) scale(0.100000,-0.100000)"
fill="#000000" stroke="none">
<path d="M0 735 l0 -735 725 0 725 0 0 735 0 735 -725 0 -725 0 0 -735z m1238
535 c18 -11 41 -34 52 -52 19 -32 20 -52 20 -493 0 -441 -1 -461 -20 -493 -11
-18 -34 -41 -52 -52 -32 -19 -52 -20 -493 -20 l-460 0 -38 25 c-69 47 -67 33
-67 543 l0 459 23 34 c46 70 40 69 547 69 436 0 456 -1 488 -20z"/>
<path d="M284 1250 c-11 -4 -33 -23 -48 -40 l-27 -32 3 -459 3 -459 33 -32 32
-33 460 -3 460 -3 37 35 38 34 3 454 c3 499 4 495 -58 531 -25 15 -73 17 -472
16 -243 0 -452 -4 -464 -9z m91 -47 c-3 -16 -12 -64 -20 -108 -8 -44 -15 -88
-15 -97 0 -17 19 -18 253 -18 222 0 257 -3 292 -19 49 -22 99 -77 115 -127 28
-83 -11 -201 -91 -276 -73 -68 -133 -88 -269 -88 -130 0 -123 -15 -84 168 4
22 4 22 -135 22 -159 0 -142 11 -163 -105 -12 -64 -13 -44 -16 260 -2 232 1
338 9 358 14 33 52 56 96 57 30 0 32 -2 28 -27z m844 -2 c29 -27 31 -33 30
-98 l0 -68 -22 30 c-38 52 -105 114 -147 135 -22 11 -40 23 -40 25 0 3 33 5
74 5 68 0 76 -2 105 -29z m26 -909 c-4 -23 -16 -39 -38 -52 -28 -18 -51 -20
-192 -20 l-160 1 58 29 c31 16 76 42 100 59 63 43 161 152 199 220 l33 60 3
-132 c2 -73 0 -147 -3 -165z"/>
</g>
</svg>
